<svg width="23" height="17" fill="none" xmlns="http://www.w3.org/2000/svg"><path d="M9.563 0C8.424 0 7.5.939 7.5 2.085v.165H2.25C1.01 2.25 0 3.26 0 4.5v10.875c0 .313.145.581.344.78.2.2.468.345.781.345h20.25c.313 0 .581-.145.78-.344.2-.2.345-.468.345-.781V4.5c0-1.24-1.01-2.25-2.25-2.25H15v-.165C15 .938 14.076 0 12.937 0H9.563Zm0 .75h3.374c.732 0 1.313.587 1.313 1.335v.165h-6v-.165c0-.748.581-1.335 1.313-1.335ZM2.25 3h1.5v4.5a.375.375 0 0 0-.375.375v.375H2.25c-.838 0-1.5-.662-1.5-1.5V4.5c0-.838.662-1.5 1.5-1.5ZM4.5 3H6v4.5H4.5V3Zm2.25 0h9v4.5a.375.375 0 0 0-.375.375v.375h-8.25v-.375A.375.375 0 0 0 6.75 7.5V3Zm9.75 0H18v4.5h-1.5V3Zm2.25 0h1.5c.838 0 1.5.662 1.5 1.5v2.25c0 .838-.662 1.5-1.5 1.5h-1.125v-.375a.375.375 0 0 0-.375-.375V3ZM4.125 8.25h2.25v1.5h-.75V9h-.75v.75h-.75v-1.5Zm12 0h2.25v1.5h-.75V9h-.75v.75h-.75v-1.5ZM.75 8.414c.399.36.923.586 1.5.586h1.125v1.125a.375.375 0 0 0 .375.375v5.25H1.125a.408.408 0 0 1-.25-.124.408.408 0 0 1-.125-.251v-6.96Zm21 0v6.961a.409.409 0 0 1-.125.25.408.408 0 0 1-.25.125H18.75V10.5a.375.375 0 0 0 .375-.375V9h1.125c.578 0 1.101-.226 1.5-.586ZM7.125 9h8.25v1.125a.375.375 0 0 0 .375.375v5.25h-9V10.5a.375.375 0 0 0 .375-.375V9ZM4.5 10.5H6v5.25H4.5V10.5Zm12 0H18v5.25h-1.5V10.5Z" fill="#fff"/></svg>