<svg width="35" height="34" fill="none" xmlns="http://www.w3.org/2000/svg"><path d="M1.647 2.4h20.826c.212 0 .416-.116.566-.323.15-.208.234-.49.234-.782 0-.294-.084-.575-.234-.782-.15-.208-.354-.324-.566-.324H1.647c-.212 0-.416.116-.566.324a1.338 1.338 0 0 0-.235.782c0 .293.085.574.235.782.15.207.354.323.566.323Zm32.04 13.271H1.646c-.212 0-.416.117-.566.324a1.35 1.35 0 0 0-.235.782c0 .293.085.575.235.782.15.207.354.324.566.324h32.04c.212 0 .415-.117.566-.324a1.35 1.35 0 0 0 .234-.782 1.35 1.35 0 0 0-.234-.782c-.15-.207-.354-.324-.567-.324Zm0 15.483H12.86c-.213 0-.416.116-.567.323-.15.208-.234.49-.234.783 0 .293.084.574.234.782.15.207.354.323.567.323h20.825c.213 0 .416-.116.567-.324.15-.207.234-.488.234-.781 0-.294-.084-.575-.234-.782-.15-.208-.354-.324-.567-.324Z" fill="#fff"/></svg>