<svg width="20" height="21" fill="none" xmlns="http://www.w3.org/2000/svg"><g clip-path="url(#a)"><path d="M19.417 7.833a1.556 1.556 0 0 0-.875-.416l.541-.625a1.738 1.738 0 0 0-.166-2.5 1.556 1.556 0 0 0-.875-.417l.291-.333a1.738 1.738 0 0 0-.166-2.5 1.738 1.738 0 0 0-2.5.166l-.542.625A1.623 1.623 0 0 0 14.583 1a1.738 1.738 0 0 0-2.5.167L9.333 4.25C9.208 3.208 8.542 2.792 8 2.292c-.167-.167-.417-.125-.583.041l-5.542 6.25c-2.708 2.875-2.417 7.459.583 10.125 3.209 2.834 7.584 1.75 8.667.709 1.208-.75 1-.667 8.417-9.042a1.825 1.825 0 0 0-.125-2.542ZM2.458 9.042l5.25-5.917c.417.375.709.667.75 1.292.042.416-.125.833-.375 1.125L6.25 7.583c-.167.167-.125.459.083.625 2.5 1.834-.041 7.959-1.75 10.875a7.194 7.194 0 0 1-1.583-1C.333 15.708.083 11.667 2.458 9.042Zm2.917 10.333c1.458-2.542 2.208-4.583 2.542-6.125.875.792 2.583 2.75 2.5 5.583-1.542.875-3.375 1.084-5.042.542Zm13.542-9.583c-7.5 8.458-7.042 8-7.667 8.5-.167-3.334-2.458-5.375-3.167-5.959.375-2.5-.208-3.708-.916-4.458.041-.042 5.5-6.208 5.5-6.208.333-.375.958-.417 1.333-.084.375.334.417.959.083 1.334l-5.125 5.75c-.166.166-.125.416.042.583.167.167.417.125.583-.042.042-.041 6.667-7.5 6.667-7.5.333-.375.958-.416 1.333-.083.375.333.417.958.084 1.333L11 10.458c-.167.167-.125.417.042.584.166.166.416.125.583-.042L17 4.958c.333-.375.958-.416 1.333-.083.375.333.417.958.084 1.333l-5.375 6.084c-.167.166-.125.416.041.583.167.167.417.125.584-.042L17.5 8.542c.333-.375.958-.417 1.333-.084a.9.9 0 0 1 .084 1.334Z" fill="#fff"/></g><defs><clipPath id="a"><path fill="#fff" transform="translate(0 .5)" d="M0 0h20v20H0z"/></clipPath></defs></svg>