<svg width="68" height="65" viewBox="0 0 68 65" fill="none" xmlns="http://www.w3.org/2000/svg">
<circle cx="35" cy="32.6414" r="32" fill="black"/>
<path d="M17.2964 32.7962C17.2964 30.9565 17.525 29.1558 17.9821 27.3941C18.4504 25.6324 19.1027 24.0101 19.939 22.5271C20.7752 21.033 21.7899 19.6616 22.9829 18.4128C24.1871 17.164 25.4972 16.1047 26.9133 15.235C28.3405 14.3542 29.8959 13.674 31.5795 13.1946C33.2632 12.704 34.9914 12.4587 36.7643 12.4587C37.935 12.4587 39.5295 12.6259 41.5476 12.9604C43.5658 13.2949 44.9818 13.4622 45.7958 13.4622C46.7324 13.4622 47.5574 13.373 48.271 13.1946L48.6724 27.4443H47.6689L47.5352 22.6275C47.5017 21.3006 47.1505 20.0518 46.4815 18.8811C45.8236 17.7103 44.9651 16.7291 43.9058 15.9375C42.8577 15.1458 41.6703 14.527 40.3434 14.081C39.0166 13.6239 37.6674 13.3953 36.296 13.3953C33.5196 13.3953 31.0666 14.1646 28.937 15.7033C26.8074 17.242 25.1572 19.4163 23.9864 22.2261C22.8268 25.0247 22.247 28.2582 22.247 31.9266C22.247 34.0896 22.4421 36.1189 22.8324 38.0144C23.2226 39.9099 23.7634 41.5769 24.4547 43.0152C25.1572 44.4535 25.9767 45.7414 26.9133 46.8787C27.861 48.016 28.8924 48.947 30.0074 49.6717C31.1224 50.3853 32.282 50.9317 33.4862 51.3108C34.6904 51.6787 35.9169 51.8627 37.1657 51.8627C39.9197 51.8627 42.3783 51.255 44.5414 50.0397C46.7045 48.8243 48.3045 47.0905 49.3414 44.8382L50.278 45.1727C49.2076 47.8599 47.4627 49.917 45.0431 51.3442C42.6236 52.7603 39.8863 53.4683 36.8312 53.4683C32.9733 53.4683 29.5614 52.6098 26.5955 50.8927C23.6408 49.1756 21.3494 46.7504 19.7215 43.6173C18.1048 40.4842 17.2964 36.8771 17.2964 32.7962Z" fill="#F1DECF"/>
</svg>
